<svg id="Layer_1" enable-background="new 0 0 512 512" height="512" viewBox="0 0 512 512" width="512" xmlns="http://www.w3.org/2000/svg"><path d="m504.5 311.615v48.486c0 13.84-11.219 25.059-25.059 25.059h-446.882c-13.84 0-25.059-11.219-25.059-25.059v-48.486z" fill="#e3edf6"/><path d="m504.5 46.329v265.286h-497v-265.286c0-13.84 11.219-25.059 25.059-25.059h446.883c13.839 0 25.058 11.219 25.058 25.059z" fill="#a4fef1"/><path d="m84.562 65.983h342.877v245.631h-342.877z" fill="#fff"/><path d="m84.562 127.471h20v184.143h-20z" fill="#c5d9ec"/><path d="m248.5 340.887h15v15h-15z"/><path d="m319.488 127.471h-234.926v-61.488h193.438z" fill="#d8fc7e"/><path d="m120.667 164.959h97.333v103h-97.333z" fill="#d8fc7e"/><path d="m322.867 447.426h-133.734l12.459-62.267h108.816z" fill="#e3edf6"/><path d="m139.102 447.426h233.796v43.304h-233.796z" fill="#e3edf6"/><path d="m52.559 21.27h-20c-13.84 0-25.059 11.219-25.059 25.059v265.286h20v-265.286c0-13.84 11.219-25.059 25.059-25.059z" fill="#71e4bf"/><path d="m84.562 65.983h20v61.488h-20z" fill="#54e072"/><path d="m120.667 164.959h20v103h-20z" fill="#54e072"/><path d="m27.5 360.101v-48.486h-20v48.486c0 13.84 11.219 25.059 25.059 25.059h20c-13.84-.001-25.059-11.22-25.059-25.059z" fill="#c5d9ec"/><path d="m201.592 385.159-12.459 62.267h20l12.459-62.267z" fill="#c5d9ec"/><path d="m139.102 447.426h20v43.304h-20z" fill="#c5d9ec"/><path d="m114.167 89.227h15v15h-15z"/><path d="m143.083 89.227h15v15h-15z"/><path d="m171.999 89.227h15v15h-15z"/><path d="m113.167 275.459h112.333v-118h-112.333zm15-103h82.333v88h-82.333z"/><path d="m250.667 157.459h137.333v15h-137.333z"/><path d="m250.667 188.456h137.333v15h-137.333z"/><path d="m250.667 219.452h137.333v15h-137.333z"/><path d="m250.667 250.448h67.333v15h-67.333z"/><path d="m479.44 13.77h-387.38v15h387.38c9.683 0 17.56 7.877 17.56 17.56v257.78h-62.062v-245.627h-357.876v245.627h-62.062v-257.78c0-9.683 7.877-17.56 17.56-17.56h44.5v-15h-44.5c-17.954 0-32.56 14.606-32.56 32.56v313.77c0 17.954 14.606 32.56 32.56 32.56h159.883l-9.458 47.266h-51.383v58.304h248.796v-58.304h-51.383l-9.458-47.266h100.383v-15h-387.38c-9.683 0-17.56-7.877-17.56-17.56v-40.99h482v40.99c0 9.683-7.877 17.56-17.56 17.56h-44.5v15h44.5c17.954 0 32.56-14.606 32.56-32.56v-313.77c0-17.954-14.606-32.56-32.56-32.56zm-114.042 441.156v28.304h-218.796v-28.304zm-51.68-15h-115.436l9.458-47.266h96.52zm106.22-366.443v46.488h-96.463l-31.367-46.488zm-327.876 0h181.952l31.367 46.488h-213.319zm0 61.488h327.877v169.139h-327.877z"/><g fill="#fff"><path d="m460.28 137.008h15v15h-15z"/><path d="m460.28 167.008h15v68.868h-15z"/><path d="m460.28 107.008h15v15h-15z"/></g></svg>