<?xml version="1.0" encoding="iso-8859-1"?>
<!-- Generator: Adobe Illustrator 19.0.0, SVG Export Plug-In . SVG Version: 6.00 Build 0)  -->
<svg version="1.1" id="Capa_1" xmlns="http://www.w3.org/2000/svg" xmlns:xlink="http://www.w3.org/1999/xlink" x="0px" y="0px"
	 viewBox="0 0 512 512" style="enable-background:new 0 0 512 512;" xml:space="preserve">
<polygon style="fill:#FED322;" points="443.971,192.504 403.324,144.496 407.995,81.755 346.858,66.843 313.807,13.289 
	255.58,37.202 197.353,13.289 164.303,66.843 103.165,81.755 107.838,144.496 67.19,192.504 107.838,240.513 103.165,303.253 
	144.51,313.337 164.303,318.165 197.353,371.719 255.58,347.805 313.807,371.719 346.858,318.165 366.651,313.337 407.995,303.253 
	403.324,240.513 "/>
<polygon style="fill:#EEBF00;" points="443.971,192.504 403.324,144.496 407.995,81.755 346.858,66.843 313.807,13.289 
	255.58,37.202 255.58,347.805 313.807,371.719 346.858,318.165 366.651,313.337 407.995,303.253 403.324,240.513 "/>
<circle style="fill:#FFDE56;" cx="255.58" cy="192.5" r="124.68"/>
<path d="M255.58,325.038c-73.08,0-132.533-59.455-132.533-132.533S182.502,59.97,255.58,59.97s132.534,59.455,132.534,132.533
	S328.66,325.038,255.58,325.038z M255.58,75.669c-64.423,0-116.834,52.412-116.834,116.834s52.412,116.834,116.834,116.834
	s116.835-52.411,116.835-116.834S320.003,75.669,255.58,75.669z"/>
<g>
	<path style="fill:#FED322;" d="M159.856,192.504c0,52.866,42.858,95.724,95.724,95.724V96.78
		C202.714,96.78,159.856,139.637,159.856,192.504z"/>
	<path style="fill:#FED322;" d="M255.58,96.78v191.448c52.867,0,95.724-42.858,95.724-95.724S308.448,96.78,255.58,96.78z"/>
</g>
<path d="M194.172,381.51l-34.859-56.483l-64.469-15.724l4.927-66.17l-42.866-50.629l42.866-50.63l-4.927-66.169l64.47-15.725
	l34.858-56.483l61.408,25.22l61.408-25.22l34.859,56.483l64.47,15.725l-4.927,66.169l42.866,50.63l-42.866,50.629l4.927,66.17
	l-64.47,15.724l-34.858,56.483l-61.408-25.22L194.172,381.51z M111.487,297.203l57.803,14.099l31.243,50.626l55.047-22.608
	l55.047,22.608l31.242-50.625l57.803-14.099l-4.416-59.311l38.428-45.387l-38.428-45.388l4.416-59.31l-57.803-14.099l-31.243-50.626
	L255.579,45.69l-55.047-22.608l-31.243,50.626l-57.803,14.099l4.416,59.31l-38.428,45.388l38.428,45.387L111.487,297.203z"/>
<polygon style="fill:#FEF5CC;" points="255.58,137.064 273.595,173.563 313.873,179.417 284.727,207.827 291.608,247.944 
	255.58,229.003 219.554,247.944 226.434,207.827 197.287,179.417 237.567,173.563 "/>
<path d="M302.033,262.293l-46.452-24.421l-46.452,24.421L218,210.567l-37.581-36.631l51.935-7.546l23.226-47.062l23.226,47.062
	l51.935,7.546l-37.581,36.631L302.033,262.293z M255.58,220.135l25.601,13.459l-4.889-28.509l20.712-20.189l-28.624-4.159
	L255.579,154.8l-12.801,25.937l-28.624,4.159l20.712,20.189l-4.889,28.509L255.58,220.135z"/>
<polygon points="451.821,13.289 436.122,13.289 436.122,25.343 424.068,25.343 424.068,41.042 436.122,41.042 436.122,53.096 
	451.821,53.096 451.821,41.042 463.875,41.042 463.875,25.343 451.821,25.343 "/>
<polygon points="512,348.488 499.946,348.488 499.946,336.434 484.247,336.434 484.247,348.488 472.193,348.488 472.193,364.188 
	484.247,364.188 484.247,376.241 499.946,376.241 499.946,364.188 512,364.188 "/>
<polygon points="225.041,463.307 209.342,463.307 209.342,475.361 197.287,475.361 197.287,491.06 209.342,491.06 209.342,503.114 
	225.041,503.114 225.041,491.06 237.095,491.06 237.095,475.361 225.041,475.361 "/>
<polygon points="31.593,146.466 15.894,146.466 15.894,162.36 0,162.36 0,178.059 15.894,178.059 15.894,193.953 31.593,193.953 
	31.593,178.059 47.487,178.059 47.487,162.36 31.593,162.36 "/>
<polygon style="fill:#3D99E2;" points="164.303,318.165 144.51,313.337 36.058,421.789 95.754,432.665 181.84,346.582 "/>
<g>
	<path style="fill:#1A6FB0;" d="M181.84,346.582l-86.086,86.085l0,0l10.877,59.697L247.47,351.525
		c0.144-0.144-0.015-0.383-0.203-0.306l-49.913,20.499L181.84,346.582z"/>
	<polygon style="fill:#1A6FB0;" points="366.651,313.337 346.858,318.165 329.321,346.582 415.406,432.665 475.103,421.789 	"/>
</g>
<path style="fill:#3D99E2;" d="M313.807,371.719l-49.913-20.499c-0.189-0.077-0.349,0.161-0.203,0.306L404.53,492.364l10.877-59.697
	l0,0l-86.085-86.085L313.807,371.719z"/>
<path d="M255.58,296.077c-57.11,0-103.574-46.463-103.574-103.574S198.47,88.93,255.58,88.93s103.574,46.463,103.574,103.574
	S312.692,296.077,255.58,296.077z M255.58,104.629c-48.454,0-87.874,39.421-87.874,87.875s39.421,87.874,87.874,87.874
	s87.875-39.421,87.875-87.874S304.035,104.629,255.58,104.629z"/>
<polygon style="fill:#1D81CD;" points="164.303,318.165 144.51,313.337 126.568,331.672 146.36,336.5 163.748,364.673 
	181.84,346.582 "/>
<g>
	<polygon style="fill:#155C92;" points="197.353,371.719 181.84,346.582 163.748,364.673 185.99,397.275 214.567,384.821 
		247.47,351.526 	"/>
	<polygon style="fill:#155C92;" points="346.858,318.165 366.651,313.337 384.593,331.672 364.8,336.5 347.413,364.673 
		329.321,346.582 	"/>
</g>
<polygon style="fill:#1D81CD;" points="313.807,371.719 329.321,346.582 347.413,364.673 325.171,397.275 296.594,384.821 
	263.692,351.526 "/>
<path d="M98.396,441.127l-78.477-14.3l122.163-122.163l27.211,6.638l22.489,36.44L98.396,441.127z M52.198,416.752l40.916,7.455
	l78.786-78.786l-12.585-20.393l-12.375-3.018L52.198,416.752z"/>
<path d="M101.593,508.503l-14.3-78.477l96.013-96.013l17.226,27.914l45.183-18.556l1.623-0.016c3.26,0,6.174,1.949,7.423,4.964
	c1.248,3.012,0.564,6.45-1.744,8.757L101.593,508.503z M104.214,435.308l7.456,40.916l103.222-103.222l-20.72,8.509l-13.801-22.362
	L104.214,435.308z"/>
<path d="M412.766,441.127l-93.385-93.385l22.489-36.44l27.211-6.638l122.163,122.163L412.766,441.127z M339.261,345.421
	l78.786,78.786l40.916-7.455l-94.741-94.741l-12.375,3.018L339.261,345.421z"/>
<path d="M409.567,508.503L258.141,357.076c-2.307-2.307-2.991-5.744-1.744-8.757c1.249-3.015,4.163-4.964,7.423-4.964h1.549
	l1.507,0.604l43.75,17.967l17.226-27.914l96.013,96.013L409.567,508.503z M296.267,373.001L399.49,476.224l7.456-40.916
	l-76.158-76.158l-13.8,22.361L296.267,373.001z"/>
<g>
</g>
<g>
</g>
<g>
</g>
<g>
</g>
<g>
</g>
<g>
</g>
<g>
</g>
<g>
</g>
<g>
</g>
<g>
</g>
<g>
</g>
<g>
</g>
<g>
</g>
<g>
</g>
<g>
</g>
</svg>
