<svg id="Capa_1" enable-background="new 0 0 450 450" height="512" viewBox="0 0 450 450" width="512" xmlns="http://www.w3.org/2000/svg"><g><g><path d="m382.5 287.941h-315c-33.137 0-60-26.863-60-60 0-33.137 26.863-60 60-60h315c33.137 0 60 26.863 60 60 0 33.137-26.863 60-60 60z" fill="#c67f80"/><path d="m414.344 177.097c5.794 9.23 9.156 20.142 9.156 31.844 0 33.137-26.863 60-60 60h-315c-11.702 0-22.614-3.362-31.844-9.156 10.612 16.907 29.409 28.156 50.844 28.156h315c33.137 0 60-26.863 60-60 0-21.435-11.248-40.232-28.156-50.844z" fill="#a95759"/><path d="m198.178 391.445-41.741-49.745c-5.347-6.373-4.516-15.873 1.857-21.22 6.373-5.347 15.873-4.516 21.221 1.856l19.284 22.981 2.298-1.928c12.692-10.65 14.348-29.573 3.698-42.265l-9.682-11.539-1.38-1.644h-126.233c-1.503 0-2.987-.074-4.462-.183l100.464 119.729c28.4 33.846 78.861 38.261 112.707 9.861l15.321-12.856-44.995-53.623z" fill="#bcbcc0"/><g fill="#9c9a9f"><path d="m157.866 320.876c-5.466-4.008-13.148-3.948-18.573.603-6.373 5.347-7.204 14.848-1.857 21.22l49.564 58.632 11.178-9.886-41.741-49.745c-5.221-6.222-4.537-15.415 1.429-20.824z"/><path d="m173.892 287.941 11.901 14.183c9.874 10.707 14.707 21.707 3.98 32.438l9.025 10.755 2.298-1.928c12.692-10.65 14.348-29.573 3.698-42.265l-11.062-13.183z"/><path d="m246.534 350.869-11.642 9.769 45.109 53.527 11.528-9.673z"/></g><path d="m216.977 116.427 43.226 51.514h117.487l-91.769-109.365c-13.908-16.575-32.817-28.192-53.888-33.107l-40.577-9.465 2.275 41.604c1.181 21.605 9.338 42.244 23.246 58.819z" fill="#bcbcc0"/><path d="m214.033 38.469c21.071 4.915 39.98 16.532 53.888 33.107l80.86 96.365h28.908l-91.768-109.365c-13.908-16.575-32.817-28.192-53.888-33.107l-40.577-9.465.953 17.421z" fill="#9c9a9f"/></g><g><path d="m294.684 138.25-9.601-11.443 11.491-9.642 9.602 11.443zm-19.244-22.933-9.642-11.491 11.491-9.642 9.642 11.491zm-19.283-22.982-9.642-11.491 11.491-9.642 9.642 11.491z" fill="#fff"/><g><path d="m449.796 222.659-14.955 1.163c.105 1.357.159 2.744.159 4.119 0 28.949-23.551 52.5-52.5 52.5h-232.5v15h40.234l8.814 10.503c3.863 4.604 5.702 10.437 5.178 16.424-.391 4.464-2.06 8.615-4.792 12.04l-14.175-16.893c-7.997-9.531-22.258-10.778-31.787-2.781-9.53 7.997-10.778 22.257-2.781 31.787l46.562 55.491 48.356-40.576 35.353 42.132-9.575 8.035c-30.625 25.697-76.444 21.687-102.141-8.936l-89.972-107.226h55.851v-15h-67.625c-28.949 0-52.5-23.551-52.5-52.5s23.551-52.5 52.5-52.5h315c22.311 0 42.236 14.144 49.583 35.194l14.162-4.942c-9.446-27.066-35.063-45.251-63.745-45.251h-1.314l-89.52-106.686c-14.853-17.702-35.426-30.341-57.93-35.59l-50.316-11.738 2.821 51.59c1.261 23.072 10.136 45.528 24.99 63.229l32.887 39.193h-176.618c-37.22 0-67.5 30.28-67.5 67.5 0 34.427 25.914 62.897 59.256 66.979l98.501 117.388c15.023 17.904 36.119 28.886 59.402 30.923 2.602.228 5.195.34 7.776.34 20.516 0 40.19-7.134 56.094-20.479l21.066-17.677-54.637-65.114-48.356 40.576-36.92-44c-2.68-3.194-2.262-7.974.932-10.654 3.194-2.681 7.974-2.262 10.655.932l24.104 28.727 8.043-6.749c7.673-6.438 12.38-15.48 13.253-25.458s-2.192-19.7-8.63-27.373l-.723-.862h172.684c37.22 0 67.5-30.28 67.5-67.5 0-1.76-.069-3.537-.204-5.28zm-227.074-111.053c-12.781-15.232-20.417-34.554-21.503-54.407l-1.729-31.619 30.839 7.193c19.363 4.517 37.066 15.393 49.847 30.624l81.43 97.044h-97.906z"/><path d="m60 222.379h14.875v15h-14.875z"/><path d="m375 222.379h14.875v15h-14.875z"/><path d="m329.5 252.997v-15.25h15.25v-15h-15.25v-15.25h-15v15.25h-15.25v15h15.25v15.25z"/></g></g></g></svg>